<?xml version="1.0" encoding="utf-8"?>
<svg viewBox="177.746 128.974 145.592 146.315" xmlns="http://www.w3.org/2000/svg">
  <rect x="176.662" y="128.251" width="146.676" height="146.676" style="fill: rgb(216, 216, 216);"/>
  <circle style="fill: rgb(112, 112, 112);" cx="250" cy="161.127" r="22.002"/>
  <path d="M 285.354 241.104 C 285.354 212.53 269.525 189.366 250 189.366 C 230.475 189.366 214.646 212.53 214.646 241.104 C 214.646 269.677 231.837 273.911 251.362 273.911 C 270.887 273.911 285.354 269.677 285.354 241.104 Z" style="fill: rgb(112, 112, 112);" transform="matrix(0.999138, -0.041504, 0.041504, 0.999138, -9.398514, 10.5756)"/>
  <path d="M 257.587 440.529 C 245.179 440.529 233.848 433.111 225.753 421.265 C 217.67 409.435 212.651 393.03 212.651 375 C 212.651 356.97 217.67 340.565 225.753 328.735 C 233.848 316.889 245.179 309.471 257.587 309.471 C 269.995 309.471 281.326 316.889 289.421 328.735 C 297.504 340.565 302.523 356.97 302.523 375 C 302.523 393.03 297.504 409.435 289.421 421.265 C 281.326 433.111 269.995 440.529 257.587 440.529 Z M 288.595 420.7 C 296.594 408.994 301.523 392.884 301.523 375 C 301.523 357.116 296.594 341.006 288.595 329.3 C 280.608 317.61 269.721 310.471 257.587 310.471 C 245.453 310.471 234.566 317.61 226.579 329.3 C 218.58 341.006 213.651 357.116 213.651 375 C 213.651 392.884 218.58 408.994 226.579 420.7 C 234.566 432.39 245.453 439.529 257.587 439.529 C 269.721 439.529 280.608 432.39 288.595 420.7 Z" style="fill: none;"/>
  <path d="M 257.587 440.529 C 245.179 440.529 233.848 433.111 225.753 421.265 C 217.67 409.435 212.651 393.03 212.651 375 C 212.651 356.97 217.67 340.565 225.753 328.735 C 233.848 316.889 245.179 309.471 257.587 309.471 C 269.995 309.471 281.326 316.889 289.421 328.735 C 297.504 340.565 302.523 356.97 302.523 375 C 302.523 393.03 297.504 409.435 289.421 421.265 C 281.326 433.111 269.995 440.529 257.587 440.529 Z M 288.595 420.7 C 296.594 408.994 301.523 392.884 301.523 375 C 301.523 357.116 296.594 341.006 288.595 329.3 C 280.608 317.61 269.721 310.471 257.587 310.471 C 245.453 310.471 234.566 317.61 226.579 329.3 C 218.58 341.006 213.651 357.116 213.651 375 C 213.651 392.884 218.58 408.994 226.579 420.7 C 234.566 432.39 245.453 439.529 257.587 439.529 C 269.721 439.529 280.608 432.39 288.595 420.7 Z" style="fill: none;"/>
</svg>